<?xml version="1.0" encoding="UTF-8"?>
<svg width="240px" height="40px" viewBox="0 0 240 40" version="1.1" xmlns="http://www.w3.org/2000/svg" xmlns:xlink="http://www.w3.org/1999/xlink">
    <!-- Generator: Sketch 52.2 (67145) - http://www.bohemiancoding.com/sketch -->
    <title>logo</title>
    <desc>Created with Sketch.</desc>
    <defs>
        <polygon id="path-1" points="3.29218107e-05 0.308421818 23.9285926 0.308421818 23.9285926 35.6727273 3.29218107e-05 35.6727273"></polygon>
        <polygon id="path-3" points="0 35.9888727 239.836379 35.9888727 239.836379 0.327272727 0 0.327272727"></polygon>
    </defs>
    <g id="logo" stroke="none" stroke-width="1" fill="none" fill-rule="evenodd">
        <g id="icon/brand/logo" transform="translate(0.000000, 2.000000)">
            <g id="Page-1">
                <g id="Group-3" transform="translate(0.000000, 0.316145)">
                    <mask id="mask-2" fill="white">
                        <use xlink:href="#path-1"></use>
                    </mask>
                    <g id="Clip-2"></g>
                    <path d="M13.1875226,18.7846036 L2.69731687,18.7846036 L2.69731687,33.29064 L13.1875226,33.29064 C18.0326255,33.29064 21.2319671,30.6089673 21.2319671,26.0379491 C21.2319671,21.4666036 18.0326255,18.7846036 13.1875226,18.7846036 M12.7881811,2.69293091 L2.69731687,2.69293091 L2.69731687,16.4000945 L12.7881811,16.4000945 C17.0861235,16.4000945 20.6815144,14.4148582 20.6815144,9.54634909 C20.6815144,4.68111273 17.0861235,2.69293091 12.7881811,2.69293091 M13.4880988,35.6728582 L3.29218107e-05,35.6728582 L3.29218107e-05,0.308421818 L13.0894156,0.308421818 C18.9837366,0.308421818 23.3787984,3.73693091 23.3787984,9.54634909 C23.3787984,13.2723491 21.2843128,16.3536218 17.8354239,17.4935127 C21.6829959,18.8372945 23.9285926,21.9159491 23.9285926,26.0379491 C23.9285926,32.3461309 19.7340247,35.6728582 13.4880988,35.6728582" id="Fill-1" fill="#1D1D1B" mask="url(#mask-2)"></path>
                </g>
                <path d="M49.1867654,3.01231636 L38.6975473,3.01231636 L38.6975473,17.3174073 L49.1867654,17.3174073 C53.7836379,17.3174073 57.030716,15.0811527 57.030716,10.16028 C57.030716,5.24529818 53.7836379,3.01231636 49.1867654,3.01231636 Z M48.4884938,19.6986436 L38.6975473,19.6986436 L38.6975473,35.9883164 L35.9992757,35.9883164 L35.9992757,0.624861818 L49.5367243,0.624861818 C55.3345844,0.624861818 59.7306337,3.95420727 59.7306337,10.11348 C59.7306337,15.4251164 56.5339259,18.80388 51.5340905,19.6492255 L60.1293169,35.9883164 L56.979358,35.9883164 L48.4884938,19.6986436 Z" id="Fill-4" fill="#1D1D1B"></path>
                <mask id="mask-4" fill="white">
                    <use xlink:href="#path-3"></use>
                </mask>
                <g id="Clip-7"></g>
                <polygon id="Fill-6" fill="#1D1D1B" mask="url(#mask-4)" points="71.3033745 35.9885455 74.0032922 35.9885455 74.0032922 0.624763636 71.3033745 0.624763636"></polygon>
                <polygon id="Fill-8" fill="#1D1D1B" mask="url(#mask-4)" points="88.9782716 0.624730909 91.6765432 0.624730909 91.6765432 33.6069491 110.56214 33.6069491 110.56214 35.9885127 88.9782716 35.9885127"></polygon>
                <polygon id="Fill-9" fill="#1D1D1B" mask="url(#mask-4)" points="121.534025 0.624730909 124.232955 0.624730909 124.232955 33.6069491 143.115259 33.6069491 143.115259 35.9885127 121.534025 35.9885127"></polygon>
                <polygon id="Fill-10" fill="#1D1D1B" mask="url(#mask-4)" points="154.090634 0.624730909 175.672856 0.624730909 175.672856 3.00924 156.788905 3.00924 156.788905 16.9670945 172.874502 16.9670945 172.874502 19.3516036 156.788905 19.3516036 156.788905 33.6069491 175.672856 33.6069491 175.672856 35.9885127 154.090634 35.9885127"></polygon>
                <path d="M186.648165,35.9885455 L186.648165,30.1788 L199.935407,14.8303636 C201.236807,13.2908727 201.785613,12.2010545 201.785613,10.5630545 C201.785613,7.93047273 200.23763,6.14029091 197.485366,6.14029091 C195.342815,6.14029091 193.143638,7.23043636 193.143638,10.6589455 L186.648165,10.6589455 C186.648165,4.20185455 191.392198,0.327272727 197.485366,0.327272727 C203.781663,0.327272727 208.280757,4.25421818 208.280757,10.6092 C208.280757,14.0377091 206.931621,15.8773091 204.483885,18.7042909 L194.538864,30.1788 L208.280757,30.1788 L208.280757,35.9885455 L186.648165,35.9885455 Z" id="Fill-11" fill="#1D1D1B" mask="url(#mask-4)"></path>
                <polygon id="Fill-12" fill="#1D1D1B" mask="url(#mask-4)" points="236.589663 30.9715855 236.589663 35.9883491 230.344066 35.9883491 230.344066 30.9715855 215.80349 30.9715855 215.80349 24.8643491 227.996741 0.62784 235.088757 0.62784 222.901103 24.8643491 230.344066 24.8643491 230.344066 18.2586764 236.589663 18.2586764 236.589663 24.8643491 239.836412 24.8643491 239.836412 30.9715855"></polygon>
            </g>
        </g>
    </g>
</svg>